<mxfile host="Electron" agent="Mozilla/5.0 (Windows NT 10.0; Win64; x64) AppleWebKit/537.36 (KHTML, like Gecko) draw.io/24.7.17 Chrome/128.0.6613.36 Electron/32.0.1 Safari/537.36" version="24.7.17">
  <diagram name="Page-1" id="xPt6fNTQT-lHXOdlqHte">
    <mxGraphModel dx="794" dy="511" grid="1" gridSize="10" guides="1" tooltips="1" connect="1" arrows="1" fold="1" page="1" pageScale="1" pageWidth="850" pageHeight="1100" math="0" shadow="0">
      <root>
        <mxCell id="0" />
        <mxCell id="1" parent="0" />
        <mxCell id="7GnOfpbeIxmX5TLfs-NM-1" value="Khách hàng" style="rounded=0;whiteSpace=wrap;html=1;" vertex="1" parent="1">
          <mxGeometry x="100" y="240" width="120" height="60" as="geometry" />
        </mxCell>
        <mxCell id="7GnOfpbeIxmX5TLfs-NM-3" value="Nhà ga" style="rounded=0;whiteSpace=wrap;html=1;" vertex="1" parent="1">
          <mxGeometry x="630" y="240" width="120" height="60" as="geometry" />
        </mxCell>
        <mxCell id="7GnOfpbeIxmX5TLfs-NM-5" value="Quản lý hệ thống bán vé ga tàu" style="strokeWidth=2;html=1;shape=mxgraph.flowchart.start_2;whiteSpace=wrap;" vertex="1" parent="1">
          <mxGeometry x="370" y="185" width="100" height="170" as="geometry" />
        </mxCell>
        <mxCell id="7GnOfpbeIxmX5TLfs-NM-14" style="edgeStyle=none;rounded=0;orthogonalLoop=1;jettySize=auto;html=1;exitX=0.5;exitY=1;exitDx=0;exitDy=0;entryX=0.227;entryY=0.89;entryDx=0;entryDy=0;entryPerimeter=0;elbow=vertical;" edge="1" parent="1" source="7GnOfpbeIxmX5TLfs-NM-1" target="7GnOfpbeIxmX5TLfs-NM-5">
          <mxGeometry relative="1" as="geometry">
            <Array as="points">
              <mxPoint x="230" y="336" />
            </Array>
          </mxGeometry>
        </mxCell>
        <mxCell id="7GnOfpbeIxmX5TLfs-NM-15" style="edgeStyle=none;rounded=0;orthogonalLoop=1;jettySize=auto;html=1;exitX=0.5;exitY=0;exitDx=0;exitDy=0;entryX=0.145;entryY=0.145;entryDx=0;entryDy=0;entryPerimeter=0;elbow=vertical;" edge="1" parent="1" source="7GnOfpbeIxmX5TLfs-NM-1" target="7GnOfpbeIxmX5TLfs-NM-5">
          <mxGeometry relative="1" as="geometry">
            <Array as="points">
              <mxPoint x="230" y="210" />
            </Array>
          </mxGeometry>
        </mxCell>
        <mxCell id="7GnOfpbeIxmX5TLfs-NM-16" style="edgeStyle=none;rounded=0;orthogonalLoop=1;jettySize=auto;html=1;exitX=0.5;exitY=0;exitDx=0;exitDy=0;entryX=0.5;entryY=0;entryDx=0;entryDy=0;entryPerimeter=0;elbow=vertical;" edge="1" parent="1" source="7GnOfpbeIxmX5TLfs-NM-1" target="7GnOfpbeIxmX5TLfs-NM-5">
          <mxGeometry relative="1" as="geometry">
            <Array as="points">
              <mxPoint x="220" y="160" />
              <mxPoint x="300" y="160" />
            </Array>
          </mxGeometry>
        </mxCell>
        <mxCell id="7GnOfpbeIxmX5TLfs-NM-17" style="edgeStyle=none;rounded=0;orthogonalLoop=1;jettySize=auto;html=1;exitX=0.5;exitY=1;exitDx=0;exitDy=0;entryX=0.5;entryY=1;entryDx=0;entryDy=0;entryPerimeter=0;elbow=vertical;" edge="1" parent="1" source="7GnOfpbeIxmX5TLfs-NM-1" target="7GnOfpbeIxmX5TLfs-NM-5">
          <mxGeometry relative="1" as="geometry">
            <Array as="points">
              <mxPoint x="240" y="390" />
              <mxPoint x="310" y="390" />
            </Array>
          </mxGeometry>
        </mxCell>
        <mxCell id="7GnOfpbeIxmX5TLfs-NM-18" value="Kiểm tra thông tin chuyến tàu" style="text;html=1;align=center;verticalAlign=middle;whiteSpace=wrap;rounded=0;" vertex="1" parent="1">
          <mxGeometry x="220" y="120" width="90" height="30" as="geometry" />
        </mxCell>
        <mxCell id="7GnOfpbeIxmX5TLfs-NM-19" value="Đặt vé tàu" style="text;html=1;align=center;verticalAlign=middle;whiteSpace=wrap;rounded=0;" vertex="1" parent="1">
          <mxGeometry x="230" y="180" width="90" height="30" as="geometry" />
        </mxCell>
        <mxCell id="7GnOfpbeIxmX5TLfs-NM-20" style="edgeStyle=none;rounded=0;orthogonalLoop=1;jettySize=auto;html=1;exitX=1;exitY=0.5;exitDx=0;exitDy=0;entryX=0;entryY=0.5;entryDx=0;entryDy=0;entryPerimeter=0;elbow=vertical;" edge="1" parent="1" source="7GnOfpbeIxmX5TLfs-NM-1" target="7GnOfpbeIxmX5TLfs-NM-5">
          <mxGeometry relative="1" as="geometry" />
        </mxCell>
        <mxCell id="7GnOfpbeIxmX5TLfs-NM-21" value="Thông tin thanh toán" style="text;html=1;align=center;verticalAlign=middle;whiteSpace=wrap;rounded=0;" vertex="1" parent="1">
          <mxGeometry x="230" y="240" width="90" height="30" as="geometry" />
        </mxCell>
        <mxCell id="7GnOfpbeIxmX5TLfs-NM-22" value="Thanh toán" style="text;html=1;align=center;verticalAlign=middle;whiteSpace=wrap;rounded=0;" vertex="1" parent="1">
          <mxGeometry x="230" y="300" width="90" height="30" as="geometry" />
        </mxCell>
        <mxCell id="7GnOfpbeIxmX5TLfs-NM-23" value="Xác nhận đã thanh toán" style="text;html=1;align=center;verticalAlign=middle;whiteSpace=wrap;rounded=0;" vertex="1" parent="1">
          <mxGeometry x="230" y="400" width="90" height="30" as="geometry" />
        </mxCell>
        <mxCell id="7GnOfpbeIxmX5TLfs-NM-24" style="edgeStyle=none;rounded=0;orthogonalLoop=1;jettySize=auto;html=1;exitX=0.5;exitY=0;exitDx=0;exitDy=0;entryX=0.855;entryY=0.145;entryDx=0;entryDy=0;entryPerimeter=0;elbow=vertical;" edge="1" parent="1" source="7GnOfpbeIxmX5TLfs-NM-3" target="7GnOfpbeIxmX5TLfs-NM-5">
          <mxGeometry relative="1" as="geometry">
            <Array as="points">
              <mxPoint x="620" y="180" />
              <mxPoint x="520" y="180" />
            </Array>
          </mxGeometry>
        </mxCell>
        <mxCell id="7GnOfpbeIxmX5TLfs-NM-25" style="edgeStyle=none;rounded=0;orthogonalLoop=1;jettySize=auto;html=1;exitX=0.5;exitY=1;exitDx=0;exitDy=0;entryX=0.855;entryY=0.855;entryDx=0;entryDy=0;entryPerimeter=0;elbow=vertical;" edge="1" parent="1" source="7GnOfpbeIxmX5TLfs-NM-3" target="7GnOfpbeIxmX5TLfs-NM-5">
          <mxGeometry relative="1" as="geometry">
            <Array as="points">
              <mxPoint x="610" y="360" />
              <mxPoint x="530" y="360" />
            </Array>
          </mxGeometry>
        </mxCell>
        <mxCell id="7GnOfpbeIxmX5TLfs-NM-26" style="edgeStyle=none;rounded=0;orthogonalLoop=1;jettySize=auto;html=1;exitX=0;exitY=0.5;exitDx=0;exitDy=0;entryX=1;entryY=0.5;entryDx=0;entryDy=0;entryPerimeter=0;elbow=vertical;" edge="1" parent="1" source="7GnOfpbeIxmX5TLfs-NM-3" target="7GnOfpbeIxmX5TLfs-NM-5">
          <mxGeometry relative="1" as="geometry" />
        </mxCell>
        <mxCell id="7GnOfpbeIxmX5TLfs-NM-27" value="Cập nhật thông tin vé trống" style="text;html=1;align=center;verticalAlign=middle;whiteSpace=wrap;rounded=0;" vertex="1" parent="1">
          <mxGeometry x="520" y="325" width="90" height="30" as="geometry" />
        </mxCell>
        <mxCell id="7GnOfpbeIxmX5TLfs-NM-28" value="Xác nhận vé đã được đặt" style="text;html=1;align=center;verticalAlign=middle;whiteSpace=wrap;rounded=0;" vertex="1" parent="1">
          <mxGeometry x="510" y="230" width="90" height="30" as="geometry" />
        </mxCell>
        <mxCell id="7GnOfpbeIxmX5TLfs-NM-29" value="Thông tin khách hàng đặt vé" style="text;html=1;align=center;verticalAlign=middle;whiteSpace=wrap;rounded=0;" vertex="1" parent="1">
          <mxGeometry x="530" y="140" width="90" height="30" as="geometry" />
        </mxCell>
      </root>
    </mxGraphModel>
  </diagram>
</mxfile>
